<svg xmlns="http://www.w3.org/2000/svg" xmlns:xlink="http://www.w3.org/1999/xlink" width="1308.945" height="865.691" viewBox="0 0 1308.945 865.691">
  <defs>
    <linearGradient id="linear-gradient" x1="0.5" x2="0.5" y2="1" gradientUnits="objectBoundingBox">
      <stop offset="0" stop-color="#fecd1a"/>
      <stop offset="1" stop-color="#c7a80b"/>
    </linearGradient>
  </defs>
  <path id="about_us_-_bg" data-name="about us - bg" d="M-1642.9,871.095-2856.46,753.565a30.5,30.5,0,0,1-12.744-4.278,37.78,37.78,0,0,1-10.332-9.266,44.592,44.592,0,0,1-6.93-12.893A46.883,46.883,0,0,1-2889,711.918V165.263a46.884,46.884,0,0,1,2.533-15.212,44.592,44.592,0,0,1,6.93-12.893,37.8,37.8,0,0,1,10.332-9.266,30.529,30.529,0,0,1,12.744-4.278L-1642.9,6.087a68.5,68.5,0,0,1,24.254,1.869,57.448,57.448,0,0,1,20,9.639,47.752,47.752,0,0,1,13.586,15.924,44.373,44.373,0,0,1,5,20.628V823.034a44.377,44.377,0,0,1-5,20.629,47.769,47.769,0,0,1-13.586,15.924,57.464,57.464,0,0,1-20,9.638,66.928,66.928,0,0,1-17.239,2.212Q-1639.343,871.436-1642.9,871.095Z" transform="translate(2889 -5.745)" fill="url(#linear-gradient)"/>
</svg>
