<svg xmlns="http://www.w3.org/2000/svg" xmlns:xlink="http://www.w3.org/1999/xlink" width="765.163" height="646.63" viewBox="0 0 765.163 646.63">
  <defs>
    <linearGradient id="linear-gradient" x1="0.5" x2="0.5" y2="1" gradientUnits="objectBoundingBox">
      <stop offset="0" stop-color="#ff701a"/>
      <stop offset="1" stop-color="#f54b34"/>
    </linearGradient>
  </defs>
  <path id="hero_-_bg" data-name="hero - bg" d="M-2182.13,652.429-2856.246,575.9a31.059,31.059,0,0,1-12.868-4.559,38.973,38.973,0,0,1-10.4-9.575,46.183,46.183,0,0,1-6.953-13.185A48.4,48.4,0,0,1-2889,533.117V125.93a48.4,48.4,0,0,1,2.538-15.467,46.183,46.183,0,0,1,6.953-13.185,38.963,38.963,0,0,1,10.4-9.576,31.072,31.072,0,0,1,12.868-4.559L-2182.13,6.618a59.961,59.961,0,0,1,22.41,1.573,51.605,51.605,0,0,1,18.563,9.221A45.587,45.587,0,0,1-2128.5,32.881a45,45,0,0,1,4.667,20.174V605.992a45,45,0,0,1-4.667,20.174,45.576,45.576,0,0,1-12.652,15.467,51.576,51.576,0,0,1-18.563,9.221,58.449,58.449,0,0,1-15.24,1.984A63.529,63.529,0,0,1-2182.13,652.429Z" transform="translate(2889 -6.208)" fill="url(#linear-gradient)"/>
</svg>
