<svg xmlns="http://www.w3.org/2000/svg" xmlns:xlink="http://www.w3.org/1999/xlink" width="151.505" height="63" viewBox="0 0 151.505 63">
  <defs>
    <linearGradient id="linear-gradient" x1="1.312" y1="0.617" x2="-0.165" y2="0.417" gradientUnits="objectBoundingBox">
      <stop offset="0" stop-color="#ff701a"/>
      <stop offset="1" stop-color="#f54b34"/>
    </linearGradient>
    <linearGradient id="linear-gradient-2" x1="0" y1="0.5" x2="1" y2="0.5" xlink:href="#linear-gradient"/>
    <linearGradient id="linear-gradient-3" x1="0.557" y1="0.378" x2="-0.106" y2="1.184" gradientUnits="objectBoundingBox">
      <stop offset="0" stop-color="#fe8979"/>
      <stop offset="1" stop-color="#111d5e"/>
    </linearGradient>
  </defs>
  <g id="logo_-_header" data-name="logo - header" transform="translate(-155.495 -27)">
    <g id="Group_138" data-name="Group 138" transform="translate(-180.006 -123.733)">
      <path id="Path_83" data-name="Path 83" d="M369.84,181.327c3.005-1.6,5.62-4.4,6.008-7.35.691-5.244-2.668-9.19-6.957-11.009-5.123-2.173-1.7-.617-21.3-5.777-9.419-2.48-10.022-4.792-9.81-6.458-2.545,1.666-3.326,10.744,1.085,13.474,4.534,2.806,13.568,3.39,24.921,6.616C373.767,173.66,372.29,178.886,369.84,181.327Z" transform="translate(-0.16)" fill="url(#linear-gradient)"/>
      <path id="Path_84" data-name="Path 84" d="M371.7,243.786a13.4,13.4,0,0,0-2.82-1.255c-14.2-3.256-15.445-3.187-20.156-4.332-12.839-3.122-11.3-5.723-11.624-6.761-2.367,2.524-2.407,10.419,1.981,12.787,5.322,2.872,14.686,3.81,26.552,6.765a19.309,19.309,0,0,1,7.81,3.466c1.875,1.508,2.389,3.713.952,5.562-1.257,1.618-4.617,1.354-8.341.834a175.112,175.112,0,0,1-17.331-3.491c-10.566-2.929-11.3-5.723-11.624-6.76-2.367,2.524-2.407,10.418,1.981,12.787,3.479,1.878,6.781,2.957,13.939,3.388,5.242.315,14.765.611,19.429-4.236.454-.471,4.082-3.22,4.832-7.955C377.976,250.184,375.56,246.078,371.7,243.786Z" transform="translate(0 -60.919)" fill="url(#linear-gradient-2)"/>
      <path id="Path_85" data-name="Path 85" d="M437.541,239.885h0c4.252.919,8.359,1.861,8.359,1.861.07.022.139.046.209.069.2-.114.4-.231.6-.355,2.45-2.441,3.925-7.667-6.055-10.5q-1.033-.294-2.041-.559C441.4,231.53,445.354,237.667,437.541,239.885Z" transform="translate(-77.02 -60.134)" fill="url(#linear-gradient-3)"/>
      <path id="Path_86" data-name="Path 86" d="M445.435,317.528a6.934,6.934,0,0,1-.59.424c1.193.233,2.372.436,3.5.594,3.724.519,7.083.784,8.341-.834,1.437-1.849.923-4.053-.952-5.562-3.1-2.5-7.123-3.339-11.209-4.28C447.512,309.229,450.019,313.832,445.435,317.528Z" transform="translate(-82.294 -118.612)" fill="url(#linear-gradient-3)"/>
    </g>
    <text id="B.live" transform="translate(203 79)" fill="#fff" font-size="45" font-family="Josefin Sans"><tspan x="0" y="0">B.live</tspan></text>
  </g>
</svg>
