<svg xmlns="http://www.w3.org/2000/svg" xmlns:xlink="http://www.w3.org/1999/xlink" width="1310.458" height="904.63" viewBox="0 0 1310.458 904.63">
  <defs>
    <linearGradient id="linear-gradient" x1="0.5" x2="0.5" y2="1" gradientUnits="objectBoundingBox">
      <stop offset="0" stop-color="#6a58cf"/>
      <stop offset="1" stop-color="#031a9a"/>
    </linearGradient>
  </defs>
  <path id="our_services_-_bg" data-name="our services - bg" d="M-2849.279,909.152a58.578,58.578,0,0,1-20.579-9.542,47.858,47.858,0,0,1-13.99-16.021A44.3,44.3,0,0,1-2889,862.673V55.064a44.307,44.307,0,0,1,5.152-20.916,47.865,47.865,0,0,1,13.99-16.021,58.594,58.594,0,0,1,20.579-9.542A71.042,71.042,0,0,1-2824.349,7l1214.125,131.392a29.689,29.689,0,0,1,12.413,4.352A37.52,37.52,0,0,1-1587.751,152a44.838,44.838,0,0,1,6.745,12.808,47.208,47.208,0,0,1,2.464,15.056V737.874a47.214,47.214,0,0,1-2.464,15.057,44.845,44.845,0,0,1-6.745,12.807A37.506,37.506,0,0,1-1597.811,775a29.689,29.689,0,0,1-12.413,4.352L-2824.349,910.741a75.542,75.542,0,0,1-8.131.443A69.017,69.017,0,0,1-2849.279,909.152Z" transform="translate(2889 -6.554)" fill="url(#linear-gradient)"/>
</svg>
